<?xml version="1.0" encoding="UTF-8" standalone="no"?>
<!DOCTYPE svg PUBLIC "-//W3C//DTD SVG 1.1//EN"
 "http://www.w3.org/Graphics/SVG/1.1/DTD/svg11.dtd">
<!-- Generated by graphviz version 2.43.0 (0)
 -->
<!-- Title: dump Pages: 1 -->
<svg width="204pt" height="131pt"
 viewBox="0.00 0.00 204.00 131.00" xmlns="http://www.w3.org/2000/svg" xmlns:xlink="http://www.w3.org/1999/xlink">
<g id="graph0" class="graph" transform="scale(1 1) rotate(0) translate(4 127)">
<title>dump</title>
<polygon fill="white" stroke="transparent" points="-4,4 -4,-127 200,-127 200,4 -4,4"/>
<!-- file1 -->
<g id="node1" class="node">
<title>file1</title>
<polygon fill="none" stroke="black" points="104,-123 0,-123 0,-87 110,-87 110,-117 104,-123"/>
<polyline fill="none" stroke="black" points="104,-123 104,-117 "/>
<polyline fill="none" stroke="black" points="110,-117 104,-117 "/>
<text text-anchor="middle" x="55" y="-101.3" font-family="Times,serif" font-size="14.00">Source file(s)</text>
</g>
<!-- file2 -->
<g id="node2" class="node">
<title>file2</title>
<polygon fill="none" stroke="black" points="95,-36 9,-36 9,0 101,0 101,-30 95,-36"/>
<polyline fill="none" stroke="black" points="95,-36 95,-30 "/>
<polyline fill="none" stroke="black" points="101,-30 95,-30 "/>
<text text-anchor="middle" x="55" y="-14.3" font-family="Times,serif" font-size="14.00">Artefact(s)</text>
</g>
<!-- file1&#45;&gt;file2 -->
<g id="edge1" class="edge">
<title>file1&#45;&gt;file2</title>
<path fill="none" stroke="black" d="M55,-86.8C55,-75.16 55,-59.55 55,-46.24"/>
<polygon fill="black" stroke="black" points="58.5,-46.18 55,-36.18 51.5,-46.18 58.5,-46.18"/>
<text text-anchor="middle" x="125.5" y="-57.8" font-family="Monospace" font-size="14.00"> build command(s)</text>
</g>
</g>
</svg>
