<?xml version="1.0" encoding="UTF-8" standalone="no"?>
<!DOCTYPE svg PUBLIC "-//W3C//DTD SVG 1.1//EN"
 "http://www.w3.org/Graphics/SVG/1.1/DTD/svg11.dtd">
<!-- Generated by graphviz version 2.43.0 (0)
 -->
<!-- Title: dump Pages: 1 -->
<svg width="136pt" height="99pt"
 viewBox="0.00 0.00 136.00 98.60" xmlns="http://www.w3.org/2000/svg" xmlns:xlink="http://www.w3.org/1999/xlink">
<g id="graph0" class="graph" transform="scale(1 1) rotate(0) translate(4 94.6)">
<title>dump</title>
<polygon fill="white" stroke="transparent" points="-4,4 -4,-94.6 132,-94.6 132,4 -4,4"/>
<!-- root -->
<g id="node1" class="node">
<title>root</title>
<ellipse fill="black" stroke="black" cx="28" cy="-88.8" rx="1.8" ry="1.8"/>
</g>
<!-- dbgz -->
<g id="node2" class="node">
<title>dbgz</title>
<polygon fill="none" stroke="black" points="50,-36 0,-36 0,0 56,0 56,-30 50,-36"/>
<polyline fill="none" stroke="black" points="50,-36 50,-30 "/>
<polyline fill="none" stroke="black" points="56,-30 50,-30 "/>
<text text-anchor="middle" x="28" y="-14.3" font-family="Times,serif" font-size="14.00">db.gz</text>
</g>
<!-- root&#45;&gt;dbgz -->
<g id="edge1" class="edge">
<title>root&#45;&gt;dbgz</title>
<path fill="none" stroke="black" d="M28,-86.83C28,-82.34 28,-63.11 28,-46.27"/>
<polygon fill="black" stroke="black" points="31.5,-46.24 28,-36.24 24.5,-46.24 31.5,-46.24"/>
<text text-anchor="middle" x="78" y="-57.8" font-family="Monospace" font-size="14.00"> wget &#45;O ...</text>
</g>
</g>
</svg>
