<?xml version="1.0" encoding="UTF-8" standalone="no"?>
<!DOCTYPE svg PUBLIC "-//W3C//DTD SVG 1.1//EN"
 "http://www.w3.org/Graphics/SVG/1.1/DTD/svg11.dtd">
<!-- Generated by graphviz version 2.43.0 (0)
 -->
<!-- Title: dump Pages: 1 -->
<svg width="127pt" height="131pt"
 viewBox="0.00 0.00 127.00 131.00" xmlns="http://www.w3.org/2000/svg" xmlns:xlink="http://www.w3.org/1999/xlink">
<g id="graph0" class="graph" transform="scale(1 1) rotate(0) translate(4 127)">
<title>dump</title>
<polygon fill="white" stroke="transparent" points="-4,4 -4,-127 123,-127 123,4 -4,4"/>
<!-- dbgz -->
<g id="node1" class="node">
<title>dbgz</title>
<polygon fill="none" stroke="black" points="66,-123 16,-123 16,-87 72,-87 72,-117 66,-123"/>
<polyline fill="none" stroke="black" points="66,-123 66,-117 "/>
<polyline fill="none" stroke="black" points="72,-117 66,-117 "/>
<text text-anchor="middle" x="44" y="-101.3" font-family="Times,serif" font-size="14.00">db.gz</text>
</g>
<!-- dbsql -->
<g id="node2" class="node">
<title>dbsql</title>
<polygon fill="none" stroke="black" points="82,-36 0,-36 0,0 88,0 88,-30 82,-36"/>
<polyline fill="none" stroke="black" points="82,-36 82,-30 "/>
<polyline fill="none" stroke="black" points="88,-30 82,-30 "/>
<text text-anchor="middle" x="44" y="-14.3" font-family="Times,serif" font-size="14.00">db.sqlite3</text>
</g>
<!-- dbgz&#45;&gt;dbsql -->
<g id="edge1" class="edge">
<title>dbgz&#45;&gt;dbsql</title>
<path fill="none" stroke="black" d="M44,-86.8C44,-75.16 44,-59.55 44,-46.24"/>
<polygon fill="black" stroke="black" points="47.5,-46.18 44,-36.18 40.5,-46.18 47.5,-46.18"/>
<text text-anchor="middle" x="81.5" y="-57.8" font-family="Monospace" font-size="14.00"> zcat ...</text>
</g>
</g>
</svg>
