<?xml version="1.0" encoding="UTF-8" standalone="no"?>
<!DOCTYPE svg PUBLIC "-//W3C//DTD SVG 1.1//EN"
 "http://www.w3.org/Graphics/SVG/1.1/DTD/svg11.dtd">
<!-- Generated by graphviz version 2.43.0 (0)
 -->
<!-- Title: dump Pages: 1 -->
<svg width="220pt" height="169pt"
 viewBox="0.00 0.00 220.00 168.72" xmlns="http://www.w3.org/2000/svg" xmlns:xlink="http://www.w3.org/1999/xlink">
<g id="graph0" class="graph" transform="scale(1 1) rotate(0) translate(4 164.72)">
<title>dump</title>
<polygon fill="white" stroke="transparent" points="-4,4 -4,-164.72 216,-164.72 216,4 -4,4"/>
<!-- dbsql -->
<g id="node1" class="node">
<title>dbsql</title>
<polygon fill="none" stroke="black" points="82,-160.72 0,-160.72 0,-124.72 88,-124.72 88,-154.72 82,-160.72"/>
<polyline fill="none" stroke="black" points="82,-160.72 82,-154.72 "/>
<polyline fill="none" stroke="black" points="88,-154.72 82,-154.72 "/>
<text text-anchor="middle" x="44" y="-139.02" font-family="Times,serif" font-size="14.00">db.sqlite3</text>
</g>
<!-- merge -->
<g id="node3" class="node">
<title>merge</title>
<ellipse fill="black" stroke="black" cx="101" cy="-87.36" rx="0.36" ry="0.36"/>
</g>
<!-- dbsql&#45;&gt;merge -->
<g id="edge1" class="edge">
<title>dbsql&#45;&gt;merge</title>
<path fill="none" stroke="black" d="M62.04,-124.63C78.21,-109.31 99.61,-89.03 100.94,-87.78"/>
</g>
<!-- query1 -->
<g id="node2" class="node">
<title>query1</title>
<polygon fill="none" stroke="black" points="206,-160.72 106,-160.72 106,-124.72 212,-124.72 212,-154.72 206,-160.72"/>
<polyline fill="none" stroke="black" points="206,-160.72 206,-154.72 "/>
<polyline fill="none" stroke="black" points="212,-154.72 206,-154.72 "/>
<text text-anchor="middle" x="159" y="-139.02" font-family="Times,serif" font-size="14.00">query/01.sql</text>
</g>
<!-- query1&#45;&gt;merge -->
<g id="edge2" class="edge">
<title>query1&#45;&gt;merge</title>
<path fill="none" stroke="black" d="M140.65,-124.63C124.19,-109.31 102.41,-89.03 101.07,-87.78"/>
</g>
<!-- result1 -->
<g id="node4" class="node">
<title>result1</title>
<polygon fill="none" stroke="black" points="148,-36 48,-36 48,0 154,0 154,-30 148,-36"/>
<polyline fill="none" stroke="black" points="148,-36 148,-30 "/>
<polyline fill="none" stroke="black" points="154,-30 148,-30 "/>
<text text-anchor="middle" x="101" y="-14.3" font-family="Times,serif" font-size="14.00">result/01.txt</text>
</g>
<!-- merge&#45;&gt;result1 -->
<g id="edge3" class="edge">
<title>merge&#45;&gt;result1</title>
<path fill="none" stroke="black" d="M101,-86.95C101,-85.8 101,-64.55 101,-46.12"/>
<polygon fill="black" stroke="black" points="104.5,-46.04 101,-36.04 97.5,-46.04 104.5,-46.04"/>
<text text-anchor="middle" x="151" y="-57.8" font-family="Monospace" font-size="14.00"> sqlite3 ...</text>
</g>
</g>
</svg>
