<?xml version="1.0" encoding="UTF-8" standalone="no"?>
<!DOCTYPE svg PUBLIC "-//W3C//DTD SVG 1.1//EN"
 "http://www.w3.org/Graphics/SVG/1.1/DTD/svg11.dtd">
<!-- Generated by graphviz version 2.43.0 (0)
 -->
<!-- Title: dump Pages: 1 -->
<svg width="220pt" height="242pt"
 viewBox="0.00 0.00 220.00 241.72" xmlns="http://www.w3.org/2000/svg" xmlns:xlink="http://www.w3.org/1999/xlink">
<g id="graph0" class="graph" transform="scale(1 1) rotate(0) translate(4 237.72)">
<title>dump</title>
<polygon fill="white" stroke="transparent" points="-4,4 -4,-237.72 216,-237.72 216,4 -4,4"/>
<!-- dbsql -->
<g id="node1" class="node">
<title>dbsql</title>
<polygon fill="none" stroke="black" points="82,-233.72 0,-233.72 0,-197.72 88,-197.72 88,-227.72 82,-233.72"/>
<polyline fill="none" stroke="black" points="82,-233.72 82,-227.72 "/>
<polyline fill="none" stroke="black" points="88,-227.72 82,-227.72 "/>
<text text-anchor="middle" x="44" y="-212.02" font-family="Times,serif" font-size="14.00">db.sqlite3</text>
</g>
<!-- merge -->
<g id="node3" class="node">
<title>merge</title>
<ellipse fill="black" stroke="black" cx="101" cy="-160.36" rx="0.36" ry="0.36"/>
</g>
<!-- dbsql&#45;&gt;merge -->
<g id="edge1" class="edge">
<title>dbsql&#45;&gt;merge</title>
<path fill="none" stroke="black" d="M62.04,-197.63C78.21,-182.31 99.61,-162.03 100.94,-160.78"/>
</g>
<!-- query1 -->
<g id="node2" class="node">
<title>query1</title>
<polygon fill="none" stroke="black" points="206,-233.72 106,-233.72 106,-197.72 212,-197.72 212,-227.72 206,-233.72"/>
<polyline fill="none" stroke="black" points="206,-233.72 206,-227.72 "/>
<polyline fill="none" stroke="black" points="212,-227.72 206,-227.72 "/>
<text text-anchor="middle" x="159" y="-212.02" font-family="Times,serif" font-size="14.00">query/01.sql</text>
</g>
<!-- query1&#45;&gt;merge -->
<g id="edge2" class="edge">
<title>query1&#45;&gt;merge</title>
<path fill="none" stroke="black" d="M140.65,-197.63C124.19,-182.31 102.41,-162.03 101.07,-160.78"/>
</g>
<!-- result1 -->
<g id="node4" class="node">
<title>result1</title>
<polygon fill="none" stroke="black" points="148,-109 48,-109 48,-73 154,-73 154,-103 148,-109"/>
<polyline fill="none" stroke="black" points="148,-109 148,-103 "/>
<polyline fill="none" stroke="black" points="154,-103 148,-103 "/>
<text text-anchor="middle" x="101" y="-87.3" font-family="Times,serif" font-size="14.00">result/01.txt</text>
</g>
<!-- merge&#45;&gt;result1 -->
<g id="edge3" class="edge">
<title>merge&#45;&gt;result1</title>
<path fill="none" stroke="black" d="M101,-159.95C101,-158.8 101,-137.55 101,-119.12"/>
<polygon fill="black" stroke="black" points="104.5,-119.04 101,-109.04 97.5,-119.04 104.5,-119.04"/>
<text text-anchor="middle" x="151" y="-130.8" font-family="Monospace" font-size="14.00"> sqlite3 ...</text>
</g>
<!-- result2 -->
<g id="node5" class="node">
<title>result2</title>
<ellipse fill="none" stroke="black" cx="101" cy="-18" rx="27" ry="18"/>
<text text-anchor="middle" x="101" y="-14.3" font-family="Times,serif" font-size="14.00">all</text>
</g>
<!-- result1&#45;&gt;result2 -->
<g id="edge4" class="edge">
<title>result1&#45;&gt;result2</title>
<path fill="none" stroke="black" d="M101,-72.81C101,-64.79 101,-55.05 101,-46.07"/>
<polygon fill="black" stroke="black" points="104.5,-46.03 101,-36.03 97.5,-46.03 104.5,-46.03"/>
</g>
</g>
</svg>
