<?xml version="1.0" encoding="UTF-8" standalone="no"?>
<!DOCTYPE svg PUBLIC "-//W3C//DTD SVG 1.1//EN"
 "http://www.w3.org/Graphics/SVG/1.1/DTD/svg11.dtd">
<!-- Generated by graphviz version 2.43.0 (0)
 -->
<!-- Title: dump Pages: 1 -->
<svg width="93pt" height="99pt"
 viewBox="0.00 0.00 93.00 98.60" xmlns="http://www.w3.org/2000/svg" xmlns:xlink="http://www.w3.org/1999/xlink">
<g id="graph0" class="graph" transform="scale(1 1) rotate(0) translate(4 94.6)">
<title>dump</title>
<polygon fill="white" stroke="transparent" points="-4,4 -4,-94.6 89,-94.6 89,4 -4,4"/>
<!-- root -->
<g id="node1" class="node">
<title>root</title>
<ellipse fill="black" stroke="black" cx="27" cy="-88.8" rx="1.8" ry="1.8"/>
</g>
<!-- test -->
<g id="node2" class="node">
<title>test</title>
<polygon fill="none" stroke="black" points="48,-36 0,-36 0,0 54,0 54,-30 48,-36"/>
<polyline fill="none" stroke="black" points="48,-36 48,-30 "/>
<polyline fill="none" stroke="black" points="54,-30 48,-30 "/>
<text text-anchor="middle" x="27" y="-14.3" font-family="Times,serif" font-size="14.00">test</text>
</g>
<!-- root&#45;&gt;test -->
<g id="edge1" class="edge">
<title>root&#45;&gt;test</title>
<path fill="none" stroke="black" d="M27,-86.83C27,-82.34 27,-63.11 27,-46.27"/>
<polygon fill="black" stroke="black" points="30.5,-46.24 27,-36.24 23.5,-46.24 30.5,-46.24"/>
<text text-anchor="middle" x="56" y="-57.8" font-family="Monospace" font-size="14.00"> pytest</text>
</g>
</g>
</svg>
